# xmcd
#
# Track frame offsets:
#	150
#	17186
#	30661
#	49749
#	68150
#
# Disc length: 1199 seconds
#
# Revision: 1
# Processed by: cddbd v1.5.2PL0 Copyright (c) Steve Scherf et al.
# Submitted via: audiograbber 1.83.01
#
DISCID=3b04ad05
DTITLE=Vanity Theft - Symptoms
DYEAR=2007
DGENRE=Rock
TTITLE0=Who You Say You Are
TTITLE1=Professional Hands
TTITLE2=Teeth And Bones
TTITLE3=You Know The Drill
TTITLE4=Symptoms
EXTD=
EXTT0=
EXTT1=
EXTT2=
EXTT3=
EXTT4=
PLAYORDER=
